<svg width="401" height="261" viewBox="0 0 401 261" fill="none" xmlns="http://www.w3.org/2000/svg">
<g clip-path="url(#clip0_2115_437)">
<g opacity="0.7" filter="url(#filter0_f_2115_437)">
<circle cx="348.245" cy="42.7959" r="122.146" fill="#714EFF" fill-opacity="0.5"/>
</g>
<g filter="url(#filter1_f_2115_437)">
<path d="M147.26 60.1118C147.26 57.9027 149.051 56.1118 151.26 56.1118H161.778C163.987 56.1118 165.778 57.9027 165.778 60.1118V157.559C165.778 161.123 170.086 162.908 172.606 160.388L213.872 119.122C215.434 117.56 217.967 117.56 219.529 119.122L227.02 126.612C228.582 128.174 228.582 130.707 227.02 132.269L159.347 199.941C157.785 201.503 155.253 201.503 153.691 199.941L86.0184 132.269C84.4563 130.707 84.4563 128.174 86.0184 126.612L93.5089 119.122C95.071 117.56 97.6036 117.56 99.1657 119.122L140.432 160.388C142.952 162.908 147.26 161.123 147.26 157.559V60.1118Z" fill="#866CF1"/>
<path fill-rule="evenodd" clip-rule="evenodd" d="M297.486 60.1118C297.486 57.9027 295.695 56.1118 293.486 56.1118H281.596C279.387 56.1118 277.596 57.9027 277.596 60.1118V64.9716C277.596 66.9377 276.163 68.595 274.245 69.028C271.083 69.742 268.085 70.7325 265.251 71.9994C258.758 74.8639 253.622 78.8932 249.841 84.0876C246.098 89.2816 244.226 95.3351 244.226 102.248C244.226 110.65 247.014 117.391 252.59 122.471C258.205 127.512 265.843 131.274 275.506 133.756V133.756C276.736 134.073 277.596 135.183 277.596 136.453V165.884C277.596 167.544 276.03 168.766 274.475 168.187V168.187C270.923 166.85 268.039 164.826 265.824 162.114C264.308 160.258 263.239 158.08 262.617 155.58C262.112 153.548 260.424 151.917 258.331 151.917H245.293C243.022 151.917 241.186 153.809 241.471 156.062C242.234 162.079 244.145 167.304 247.205 171.738C250.986 177.162 256.219 181.287 262.902 184.113C266.318 185.549 270.044 186.62 274.08 187.326C276.077 187.676 277.596 189.367 277.596 191.394V198.77C277.596 200.979 279.387 202.77 281.596 202.77H293.486C295.695 202.77 297.486 200.979 297.486 198.77V191.093C297.486 189.104 298.953 187.433 300.902 187.037C304.445 186.319 307.704 185.306 310.681 183.998C317.326 181.057 322.406 176.99 325.919 171.796C329.433 166.563 331.19 160.51 331.19 153.635C331.19 148.556 330.235 144.126 328.326 140.345C326.416 136.564 323.819 133.336 320.534 130.663C317.288 127.989 313.602 125.774 309.478 124.017C306.58 122.771 303.595 121.708 300.524 120.827C298.751 120.318 297.486 118.724 297.486 116.879V92.804C297.486 90.1193 300.184 88.2637 302.374 89.8161V89.8161C305.361 91.9129 307.376 94.6358 308.419 97.9852C309.027 99.9373 310.685 101.503 312.729 101.503H325.516C327.752 101.503 329.582 99.6626 329.284 97.4462C328.618 92.4779 326.866 87.9868 324.029 83.9727C320.439 78.855 315.493 74.8639 309.191 71.9994C306.575 70.7872 303.779 69.8278 300.803 69.1218C298.902 68.6708 297.486 67.0215 297.486 65.068V60.1118ZM277.596 89.0224C277.596 87.9787 276.582 87.2338 275.62 87.6393V87.6393C272.45 88.9759 270.025 90.7901 268.345 93.0819C266.664 95.3732 265.805 97.9895 265.767 100.93C265.767 103.375 266.321 105.494 267.428 107.289C268.574 109.084 270.121 110.612 272.068 111.872C272.167 111.934 272.266 111.995 272.366 112.056C274.763 113.521 277.596 111.594 277.596 108.785V89.0224ZM299.853 140.86C298.724 140.364 297.486 141.214 297.486 142.448V167.317C297.486 167.925 298.084 168.353 298.65 168.129V168.129C302.164 166.716 304.914 164.768 306.9 162.286C308.886 159.765 309.898 156.824 309.936 153.463C309.898 150.408 309 147.887 307.243 145.901C305.487 143.877 303.023 142.197 299.853 140.86V140.86Z" fill="#866CF1"/>
</g>
<g opacity="0.8">
<path d="M147.26 56.1118H165.778V167.216L216.701 116.293L229.848 129.441L156.519 202.77L83.1899 129.441L96.3373 116.293L147.26 167.216V56.1118Z" fill="#9588CB"/>
<path d="M147.26 56.1118H165.778V167.216L216.701 116.293L229.848 129.441L156.519 202.77L83.1899 129.441L96.3373 116.293L147.26 167.216V56.1118Z" fill="url(#paint0_linear_2115_437)"/>
<path fill-rule="evenodd" clip-rule="evenodd" d="M297.486 56.1118H277.596V68.3846C273.184 69.0878 269.069 70.2927 265.251 71.9994C258.758 74.8639 253.622 78.8932 249.841 84.0876C246.098 89.2816 244.226 95.3351 244.226 102.248C244.226 110.65 247.014 117.391 252.59 122.471C258.205 127.512 265.843 131.274 275.506 133.756L277.596 134.294V169.154C276.523 168.884 275.482 168.562 274.475 168.187C270.923 166.85 268.039 164.826 265.824 162.114C263.609 159.402 262.349 156.003 262.043 151.917H241.133C241.438 159.708 243.462 166.315 247.205 171.738C250.986 177.162 256.219 181.287 262.902 184.113C267.288 185.957 272.186 187.199 277.596 187.84V202.77H297.486V187.626C302.372 186.925 306.771 185.716 310.681 183.998C317.326 181.057 322.406 176.99 325.919 171.796C329.433 166.563 331.19 160.51 331.19 153.635C331.19 148.556 330.235 144.126 328.326 140.345C326.416 136.564 323.819 133.336 320.534 130.663C317.288 127.989 313.602 125.774 309.478 124.017C305.633 122.364 301.635 121.033 297.486 120.022V87.2815C299.28 87.933 300.909 88.7777 302.374 89.8161C306.346 92.6043 308.599 96.4998 309.134 101.503H329.586C329.471 94.8957 327.619 89.0522 324.029 83.9727C320.439 78.855 315.493 74.8639 309.191 71.9994C305.624 70.3465 301.722 69.1637 297.486 68.4523V56.1118ZM277.596 86.918C276.913 87.1318 276.254 87.3722 275.62 87.6393C272.45 88.9759 270.025 90.7901 268.345 93.0819C266.664 95.3732 265.805 97.9895 265.767 100.93C265.767 103.375 266.321 105.494 267.428 107.289C268.574 109.084 270.121 110.612 272.068 111.872C273.754 112.93 275.596 113.844 277.596 114.616V86.918ZM297.486 139.889V168.557C297.881 168.423 298.269 168.28 298.65 168.129C302.164 166.716 304.914 164.768 306.9 162.286C308.886 159.765 309.898 156.824 309.936 153.463C309.898 150.408 309 147.887 307.243 145.901C305.487 143.877 303.023 142.197 299.853 140.86C299.095 140.527 298.306 140.204 297.486 139.889Z" fill="#9588CB"/>
<path fill-rule="evenodd" clip-rule="evenodd" d="M297.486 56.1118H277.596V68.3846C273.184 69.0878 269.069 70.2927 265.251 71.9994C258.758 74.8639 253.622 78.8932 249.841 84.0876C246.098 89.2816 244.226 95.3351 244.226 102.248C244.226 110.65 247.014 117.391 252.59 122.471C258.205 127.512 265.843 131.274 275.506 133.756L277.596 134.294V169.154C276.523 168.884 275.482 168.562 274.475 168.187C270.923 166.85 268.039 164.826 265.824 162.114C263.609 159.402 262.349 156.003 262.043 151.917H241.133C241.438 159.708 243.462 166.315 247.205 171.738C250.986 177.162 256.219 181.287 262.902 184.113C267.288 185.957 272.186 187.199 277.596 187.84V202.77H297.486V187.626C302.372 186.925 306.771 185.716 310.681 183.998C317.326 181.057 322.406 176.99 325.919 171.796C329.433 166.563 331.19 160.51 331.19 153.635C331.19 148.556 330.235 144.126 328.326 140.345C326.416 136.564 323.819 133.336 320.534 130.663C317.288 127.989 313.602 125.774 309.478 124.017C305.633 122.364 301.635 121.033 297.486 120.022V87.2815C299.28 87.933 300.909 88.7777 302.374 89.8161C306.346 92.6043 308.599 96.4998 309.134 101.503H329.586C329.471 94.8957 327.619 89.0522 324.029 83.9727C320.439 78.855 315.493 74.8639 309.191 71.9994C305.624 70.3465 301.722 69.1637 297.486 68.4523V56.1118ZM277.596 86.918C276.913 87.1318 276.254 87.3722 275.62 87.6393C272.45 88.9759 270.025 90.7901 268.345 93.0819C266.664 95.3732 265.805 97.9895 265.767 100.93C265.767 103.375 266.321 105.494 267.428 107.289C268.574 109.084 270.121 110.612 272.068 111.872C273.754 112.93 275.596 113.844 277.596 114.616V86.918ZM297.486 139.889V168.557C297.881 168.423 298.269 168.28 298.65 168.129C302.164 166.716 304.914 164.768 306.9 162.286C308.886 159.765 309.898 156.824 309.936 153.463C309.898 150.408 309 147.887 307.243 145.901C305.487 143.877 303.023 142.197 299.853 140.86C299.095 140.527 298.306 140.204 297.486 139.889Z" fill="url(#paint1_linear_2115_437)"/>
<path d="M147.26 56.1118H165.778V167.216L216.701 116.293L229.848 129.441L156.519 202.77L83.1899 129.441L96.3373 116.293L147.26 167.216V56.1118Z" stroke="url(#paint2_linear_2115_437)" stroke-opacity="0.97" stroke-width="0.84"/>
<path fill-rule="evenodd" clip-rule="evenodd" d="M297.486 56.1118H277.596V68.3846C273.184 69.0878 269.069 70.2927 265.251 71.9994C258.758 74.8639 253.622 78.8932 249.841 84.0876C246.098 89.2816 244.226 95.3351 244.226 102.248C244.226 110.65 247.014 117.391 252.59 122.471C258.205 127.512 265.843 131.274 275.506 133.756L277.596 134.294V169.154C276.523 168.884 275.482 168.562 274.475 168.187C270.923 166.85 268.039 164.826 265.824 162.114C263.609 159.402 262.349 156.003 262.043 151.917H241.133C241.438 159.708 243.462 166.315 247.205 171.738C250.986 177.162 256.219 181.287 262.902 184.113C267.288 185.957 272.186 187.199 277.596 187.84V202.77H297.486V187.626C302.372 186.925 306.771 185.716 310.681 183.998C317.326 181.057 322.406 176.99 325.919 171.796C329.433 166.563 331.19 160.51 331.19 153.635C331.19 148.556 330.235 144.126 328.326 140.345C326.416 136.564 323.819 133.336 320.534 130.663C317.288 127.989 313.602 125.774 309.478 124.017C305.633 122.364 301.635 121.033 297.486 120.022V87.2815C299.28 87.933 300.909 88.7777 302.374 89.8161C306.346 92.6043 308.599 96.4998 309.134 101.503H329.586C329.471 94.8957 327.619 89.0522 324.029 83.9727C320.439 78.855 315.493 74.8639 309.191 71.9994C305.624 70.3465 301.722 69.1637 297.486 68.4523V56.1118ZM277.596 86.918C276.913 87.1318 276.254 87.3722 275.62 87.6393C272.45 88.9759 270.025 90.7901 268.345 93.0819C266.664 95.3732 265.805 97.9895 265.767 100.93C265.767 103.375 266.321 105.494 267.428 107.289C268.574 109.084 270.121 110.612 272.068 111.872C273.754 112.93 275.596 113.844 277.596 114.616V86.918ZM297.486 139.889V168.557C297.881 168.423 298.269 168.28 298.65 168.129C302.164 166.716 304.914 164.768 306.9 162.286C308.886 159.765 309.898 156.824 309.936 153.463C309.898 150.408 309 147.887 307.243 145.901C305.487 143.877 303.023 142.197 299.853 140.86C299.095 140.527 298.306 140.204 297.486 139.889Z" stroke="url(#paint3_linear_2115_437)" stroke-opacity="0.97" stroke-width="0.84"/>
</g>
</g>
<defs>
<filter id="filter0_f_2115_437" x="3.49911" y="-301.95" width="689.492" height="689.492" filterUnits="userSpaceOnUse" color-interpolation-filters="sRGB">
<feFlood flood-opacity="0" result="BackgroundImageFix"/>
<feBlend mode="normal" in="SourceGraphic" in2="BackgroundImageFix" result="shape"/>
<feGaussianBlur stdDeviation="111.3" result="effect1_foregroundBlur_2115_437"/>
</filter>
<filter id="filter1_f_2115_437" x="62.8467" y="34.1118" width="290.343" height="190.658" filterUnits="userSpaceOnUse" color-interpolation-filters="sRGB">
<feFlood flood-opacity="0" result="BackgroundImageFix"/>
<feBlend mode="normal" in="SourceGraphic" in2="BackgroundImageFix" result="shape"/>
<feGaussianBlur stdDeviation="11" result="effect1_foregroundBlur_2115_437"/>
</filter>
<linearGradient id="paint0_linear_2115_437" x1="346.751" y1="14.3135" x2="101.874" y2="445.859" gradientUnits="userSpaceOnUse">
<stop offset="0.0123028" stop-color="white" stop-opacity="0.2"/>
<stop offset="1" stop-color="white" stop-opacity="0.28"/>
</linearGradient>
<linearGradient id="paint1_linear_2115_437" x1="346.751" y1="14.3135" x2="101.874" y2="445.859" gradientUnits="userSpaceOnUse">
<stop offset="0.0123028" stop-color="white" stop-opacity="0.2"/>
<stop offset="1" stop-color="white" stop-opacity="0.28"/>
</linearGradient>
<linearGradient id="paint2_linear_2115_437" x1="228.287" y1="56.1118" x2="351.209" y2="59.1031" gradientUnits="userSpaceOnUse">
<stop stop-color="white" stop-opacity="0"/>
<stop offset="1" stop-color="white"/>
</linearGradient>
<linearGradient id="paint3_linear_2115_437" x1="228.287" y1="56.1118" x2="351.209" y2="59.1031" gradientUnits="userSpaceOnUse">
<stop stop-color="white" stop-opacity="0"/>
<stop offset="1" stop-color="white"/>
</linearGradient>
<clipPath id="clip0_2115_437">
<rect width="401" height="261" fill="white"/>
</clipPath>
</defs>
</svg>
