<svg width="362" height="308" viewBox="0 0 362 308" fill="none" xmlns="http://www.w3.org/2000/svg">
<g clip-path="url(#clip0_2115_440)">
<g opacity="0.7" filter="url(#filter0_f_2115_440)">
<circle cx="309.245" cy="42.7959" r="122.146" fill="#714EFF" fill-opacity="0.5"/>
</g>
<g filter="url(#filter1_f_2115_440)">
<path fill-rule="evenodd" clip-rule="evenodd" d="M204.022 50.9433C207.555 49.6156 211.448 49.6156 214.981 50.9433L269.617 71.4853C272.593 72.6039 275.158 74.6066 276.968 77.2258C278.779 79.845 279.748 82.9559 279.748 86.1426V128.111C279.748 141.191 276.116 154.012 269.257 165.139C262.399 176.265 252.586 185.257 240.917 191.106L214.739 204.222C213.113 205.037 211.32 205.462 209.501 205.462C207.683 205.462 205.89 205.037 204.264 204.222L178.086 191.099C166.417 185.249 156.604 176.257 149.746 165.131C142.887 154.004 139.255 141.183 139.255 128.103V86.1504C139.253 82.9624 140.222 79.8498 142.032 77.229C143.843 74.6082 146.409 72.6043 149.386 71.4853L204.022 50.9433ZM217.307 127.613C217.307 126.352 217.999 125.211 218.999 124.442C221.166 122.777 222.869 120.562 223.923 118.011C225.238 114.828 225.469 111.299 224.579 107.971C223.69 104.643 221.73 101.702 219.004 99.605C216.278 97.5076 212.938 96.3707 209.501 96.3705C206.065 96.3707 202.725 97.5076 199.999 99.605C197.273 101.702 195.313 104.643 194.424 107.971C193.534 111.299 193.765 114.828 195.08 118.011C196.134 120.562 197.837 122.777 200.004 124.442C201.004 125.211 201.696 126.352 201.696 127.613V151.149C201.696 153.225 202.519 155.215 203.982 156.683C205.446 158.15 207.431 158.975 209.501 158.975C211.572 158.975 213.557 158.15 215.021 156.683C216.484 155.215 217.307 153.225 217.307 151.149V127.613Z" fill="#866CF1"/>
</g>
<path fill-rule="evenodd" clip-rule="evenodd" d="M204.022 50.9433C207.555 49.6156 211.448 49.6156 214.981 50.9433L269.617 71.4853C272.593 72.6039 275.158 74.6066 276.968 77.2258C278.779 79.845 279.748 82.9559 279.748 86.1426V128.111C279.748 141.191 276.116 154.012 269.257 165.139C262.399 176.265 252.586 185.257 240.917 191.106L214.739 204.222C213.113 205.037 211.32 205.462 209.501 205.462C207.683 205.462 205.89 205.037 204.264 204.222L178.086 191.099C166.417 185.249 156.604 176.257 149.746 165.131C142.887 154.004 139.255 141.183 139.255 128.103V86.1504C139.253 82.9624 140.222 79.8498 142.032 77.229C143.843 74.6082 146.409 72.6043 149.386 71.4853L204.022 50.9433ZM217.307 125.575C220.282 123.853 222.608 121.194 223.923 118.011C225.238 114.828 225.469 111.299 224.579 107.971C223.69 104.643 221.73 101.702 219.004 99.605C216.278 97.5076 212.938 96.3707 209.501 96.3705C206.065 96.3707 202.725 97.5076 199.999 99.605C197.273 101.702 195.313 104.643 194.424 107.971C193.534 111.299 193.765 114.828 195.08 118.011C196.395 121.194 198.721 123.853 201.696 125.575V151.149C201.696 153.225 202.519 155.215 203.982 156.683C205.446 158.15 207.431 158.975 209.501 158.975C211.572 158.975 213.557 158.15 215.021 156.683C216.484 155.215 217.307 153.225 217.307 151.149V125.575Z" fill="url(#paint0_linear_2115_440)"/>
<path d="M214.551 203.847L214.55 203.847C212.983 204.633 211.254 205.042 209.501 205.042C207.749 205.042 206.02 204.633 204.452 203.847L178.274 190.723C166.675 184.909 156.921 175.971 150.103 164.91C143.286 153.85 139.675 141.105 139.675 128.103L139.675 86.1504L139.675 86.1501C139.673 83.0474 140.616 80.0182 142.378 77.4677C144.14 74.9173 146.637 72.9673 149.534 71.8785L149.534 71.8785L204.17 51.3365C207.608 50.0445 211.395 50.0445 214.833 51.3365L269.469 71.8785L269.617 71.4853L269.469 71.8785C272.365 72.9669 274.861 74.9157 276.623 77.4646C278.385 80.0135 279.328 83.0411 279.328 86.1425V128.111C279.328 141.113 275.717 153.858 268.9 164.918C262.082 175.978 252.328 184.916 240.729 190.731L214.551 203.847ZM217.727 125.815C220.682 124.044 222.992 121.364 224.311 118.171C225.661 114.903 225.898 111.279 224.985 107.862C224.072 104.445 222.06 101.426 219.26 99.2721C216.461 97.1183 213.03 95.9507 209.502 95.9505C205.972 95.9507 202.542 97.1183 199.743 99.2721C196.943 101.426 194.931 104.445 194.018 107.862C193.105 111.279 193.342 114.903 194.692 118.171C196.011 121.364 198.321 124.044 201.276 125.815V151.149C201.276 153.336 202.143 155.433 203.685 156.979C205.227 158.526 207.32 159.395 209.501 159.395C211.683 159.395 213.776 158.526 215.318 156.979C216.86 155.433 217.727 153.336 217.727 151.149V125.815Z" stroke="#C8BAFF" stroke-opacity="0.42" stroke-width="0.84"/>
<path opacity="0.5" fill-rule="evenodd" clip-rule="evenodd" d="M202.232 25.5593C206.919 23.7953 212.084 23.7953 216.772 25.5593L289.263 52.8502C293.212 54.3363 296.614 56.997 299.017 60.4767C301.419 63.9564 302.705 68.0893 302.705 72.323V128.08C302.705 145.457 297.886 162.491 288.786 177.273C279.686 192.055 266.666 204.001 251.184 211.772L216.451 229.197C214.293 230.28 211.914 230.844 209.502 230.844C207.09 230.844 204.71 230.28 202.553 229.197L167.819 211.762C152.338 203.99 139.318 192.044 130.218 177.262C121.118 162.48 116.298 145.446 116.299 128.069V72.3334C116.296 68.098 117.582 63.9628 119.984 60.481C122.386 56.9992 125.79 54.3369 129.741 52.8502L202.232 25.5593Z" stroke="#2D254A" stroke-width="0.459128"/>
<path opacity="0.3" fill-rule="evenodd" clip-rule="evenodd" d="M200.871 5.61633C206.435 3.50745 212.567 3.50745 218.132 5.61633L304.193 38.2442C308.881 40.0208 312.921 43.2018 315.773 47.362C318.624 51.5222 320.152 56.4634 320.151 61.5249V128.185C320.152 148.96 314.43 169.325 303.627 186.998C292.824 204.671 277.366 218.953 258.987 228.244L217.751 249.076C215.19 250.371 212.365 251.046 209.501 251.046C206.638 251.046 203.813 250.371 201.252 249.076L160.016 228.232C141.637 218.94 126.179 204.658 115.376 186.986C104.573 169.313 98.8511 148.948 98.8516 128.173V61.5374C98.8484 56.4737 100.375 51.5298 103.227 47.3671C106.079 43.2045 110.12 40.0215 114.81 38.2442L200.871 5.61633Z" stroke="#2D254A" stroke-width="0.459128"/>
<path opacity="0.1" fill-rule="evenodd" clip-rule="evenodd" d="M199.367 -14.3265C205.901 -16.7803 213.102 -16.7803 219.636 -14.3265L320.696 23.6383C326.201 25.7055 330.944 29.4068 334.293 34.2475C337.642 39.0882 339.436 44.8376 339.435 50.727V128.291C339.435 152.464 332.716 176.16 320.03 196.724C307.345 217.287 289.193 233.905 267.611 244.716L219.189 268.956C216.181 270.463 212.864 271.247 209.502 271.247C206.139 271.247 202.822 270.463 199.814 268.956L151.393 244.702C129.81 233.891 111.659 217.273 98.9727 196.709C86.2869 176.146 79.5678 152.45 79.5684 128.276V50.7415C79.5647 44.8495 81.3572 39.097 84.706 34.2534C88.0549 29.4099 92.8004 25.7063 98.3076 23.6383L199.367 -14.3265Z" stroke="#2D254A" stroke-width="0.459128"/>
<path opacity="0.05" fill-rule="evenodd" clip-rule="evenodd" d="M197.648 -38.802C205.291 -41.6791 213.713 -41.6791 221.355 -38.802L339.555 5.71264C345.994 8.13648 351.543 12.4764 355.459 18.1522C359.376 23.828 361.474 30.5693 361.473 37.4749V128.42C361.474 156.764 353.615 184.548 338.778 208.659C323.94 232.77 302.71 252.256 277.467 264.932L220.832 293.353C217.314 295.12 213.435 296.04 209.502 296.04C205.568 296.04 201.689 295.12 198.171 293.353L141.537 264.915C116.293 252.239 95.0633 232.753 80.2258 208.642C65.3884 184.531 57.5297 156.747 57.5303 128.403V37.4918C57.526 30.5834 59.6225 23.8384 63.5394 18.1592C67.4562 12.48 73.0066 8.13749 79.4479 5.71264L197.648 -38.802Z" stroke="#2D254A" stroke-width="0.459128"/>
</g>
<defs>
<filter id="filter0_f_2115_440" x="-35.5009" y="-301.95" width="689.492" height="689.492" filterUnits="userSpaceOnUse" color-interpolation-filters="sRGB">
<feFlood flood-opacity="0" result="BackgroundImageFix"/>
<feBlend mode="normal" in="SourceGraphic" in2="BackgroundImageFix" result="shape"/>
<feGaussianBlur stdDeviation="111.3" result="effect1_foregroundBlur_2115_440"/>
</filter>
<filter id="filter1_f_2115_440" x="113.773" y="24.4659" width="191.456" height="206.478" filterUnits="userSpaceOnUse" color-interpolation-filters="sRGB">
<feFlood flood-opacity="0" result="BackgroundImageFix"/>
<feBlend mode="normal" in="SourceGraphic" in2="BackgroundImageFix" result="shape"/>
<feGaussianBlur stdDeviation="12.7408" result="effect1_foregroundBlur_2115_440"/>
</filter>
<linearGradient id="paint0_linear_2115_440" x1="247.425" y1="26.8109" x2="147.309" y2="375.777" gradientUnits="userSpaceOnUse">
<stop offset="0.0123028" stop-color="white" stop-opacity="0.2"/>
<stop offset="1" stop-color="white" stop-opacity="0.28"/>
</linearGradient>
<clipPath id="clip0_2115_440">
<rect width="362" height="308" fill="white"/>
</clipPath>
</defs>
</svg>
