<svg width="403" height="107" viewBox="0 0 403 107" fill="none" xmlns="http://www.w3.org/2000/svg">
<path d="M333.325 7.39575V98.9702H340.26V98.8638H343.254C356.335 82.0766 385.216 45.2666 396.065 30.8602V98.972H403V7.39753H393.483C380.233 24.3993 350.779 61.9402 340.263 75.9422C340.263 76.1675 340.263 76.3928 340.26 76.6163V7.39753H333.325V7.39575ZM339.752 93.698C339.908 91.2676 340.02 88.7734 340.098 86.194C340.153 86.1249 340.206 86.0539 340.26 85.9829C354.274 67.821 387.919 24.0907 396.065 13.6029V20.807C381.561 39.6076 347.547 83.8187 340.26 93.1835C340.137 93.3414 340.02 93.4922 339.914 93.6288L339.752 93.698Z" fill="white"/>
<path d="M340.261 75.9458V76.6145C340.261 76.391 340.265 76.1657 340.265 75.9404C340.265 75.9404 340.265 75.944 340.261 75.9458Z" fill="white"/>
<path d="M274.89 4.47925V101.888H268.351V4.47925H274.89Z" fill="white"/>
<path d="M63.615 52.9941L45.1976 21.4758L21.5096 62.6073H32.5828L34.8943 58.6957L45.4016 40.9062L52.6217 53.1963L63.615 52.9941Z" fill="white"/>
<path d="M45.2348 45.8823L27.1473 77.5904L74.6119 77.539L69.0753 67.9488L43.8724 67.6987L50.9062 55.3004L45.2348 45.8823Z" fill="white"/>
<path d="M48.3535 65.2452L84.8566 65.0554L61.08 23.9736L55.5434 33.5638L67.9293 55.515L53.6737 55.6232L48.3535 65.2452Z" fill="white"/>
<path d="M20.933 85.6334L22.5775 85.3585L21.192 84.0706L20.933 85.6334Z" fill="white"/>
<path d="M7.22722 40.6648L6.62939 41.1438L7.51638 41.3886L7.22722 40.6648Z" fill="white"/>
<path d="M19.6875 88.2198L19.9554 86.6108L18.3801 86.8752L19.6875 88.2198Z" fill="white"/>
<path d="M9.60433 41.1545L8.77234 41.7364L9.89705 42.0468L9.60433 41.1545Z" fill="white"/>
<path d="M77.3968 11.7474C77.2177 12.0294 76.9551 12.4481 76.5737 13.069L77.9468 13.0033C77.6984 12.4463 77.5228 12.0419 77.3986 11.7456L77.3968 11.7474Z" fill="white"/>
<path d="M65.3941 8.23484L64.9683 7.36914L64.5497 8.838L65.3941 8.23484Z" fill="white"/>
<path d="M67.1397 7.9759L66.4159 8.49213L66.8257 9.32589C66.9303 8.88062 67.0368 8.41762 67.1397 7.97412V7.9759Z" fill="white"/>
<path d="M87.0207 20.0264L85.8232 21.1014L87.1519 21.222L87.0207 20.0264Z" fill="white"/>
<path d="M98.2712 54.0745L100.242 54.1099C99.7632 53.5547 99.4616 53.2035 99.2718 52.9746C99.0234 53.2425 98.6455 53.6576 98.2712 54.0727V54.0745Z" fill="white"/>
<path d="M102.183 32.478C99.5042 26.1431 95.6706 20.4575 90.7904 15.5773C85.9102 10.6971 80.2246 6.86351 73.8897 4.18481C67.3242 1.40853 60.3578 0 53.1838 0C46.0099 0 39.0435 1.40853 32.478 4.18481C26.1431 6.86351 20.4575 10.6971 15.5773 15.5773C10.6971 20.4575 6.86352 26.1431 4.18481 32.478C1.40854 39.0435 0 46.0099 0 53.1838C0 60.3578 1.40854 67.3242 4.18481 73.8897C6.86352 80.2246 10.6971 85.9102 15.5773 90.7904C20.4575 95.6706 26.1449 99.5041 32.478 102.183C39.0435 104.959 46.0099 106.368 53.1838 106.368C60.3578 106.368 67.3242 104.959 73.8897 102.183C80.2246 99.5041 85.9102 95.6706 90.7904 90.7904C95.6706 85.9102 99.5042 80.2246 102.183 73.8897C104.959 67.3242 106.368 60.3578 106.368 53.1838C106.368 46.0099 104.959 39.0435 102.183 32.478ZM100.631 39.8861C100.691 40.099 100.567 40.3225 100.354 40.3828L98.4504 40.9203L98.2145 42.9728L100.819 42.3253C101.035 42.2721 101.253 42.4034 101.307 42.618C101.36 42.8327 101.228 43.0509 101.014 43.1041L96.0077 44.3477C95.9757 44.3565 95.942 44.3601 95.9101 44.3601C95.7291 44.3601 95.5659 44.2377 95.5198 44.0549C95.4666 43.8403 95.5979 43.6221 95.8125 43.5689L97.3825 43.1786L97.6149 41.1545L95.3655 41.7913C95.3282 41.802 95.2927 41.8073 95.2555 41.8073C95.0799 41.8073 94.9184 41.692 94.8688 41.5146C94.8084 41.3017 94.9326 41.0782 95.1455 41.0179L100.136 39.6058C100.349 39.5455 100.57 39.6697 100.632 39.8825L100.631 39.8861ZM90.9855 31.2788L95.2413 28.3889C95.3779 28.2967 95.5588 28.2967 95.6937 28.3889C95.8303 28.483 95.8959 28.6497 95.8569 28.8111L95.2289 31.4987C95.1792 31.7152 94.9645 31.85 94.7463 31.7985C94.5299 31.7489 94.3951 31.5324 94.4466 31.316L94.8404 29.629L91.4343 31.9404C91.3652 31.9866 91.2871 32.0096 91.209 32.0096C91.0795 32.0096 90.9536 31.9475 90.8755 31.834C90.7514 31.6495 90.7993 31.4012 90.982 31.2752L90.9855 31.2788ZM83.2811 22.3078L87.0668 18.9035C87.1786 18.8024 87.3382 18.774 87.4784 18.8272C87.6203 18.8804 87.7179 19.0099 87.7338 19.159L88.0017 21.623C88.0141 21.7436 87.9733 21.8625 87.8899 21.9476C87.8066 22.0328 87.6912 22.0771 87.5671 22.0665L85.5234 21.882L85.5412 23.6773C85.543 23.899 85.3656 24.0817 85.1438 24.0835H85.1403C84.9203 24.0835 84.7411 23.9061 84.7376 23.6861L84.7216 22.0931L83.8169 22.9056C83.6519 23.0546 83.3982 23.0404 83.2492 22.8754C83.1002 22.7104 83.1144 22.4568 83.2794 22.3078H83.2811ZM74.5603 14.8269C74.5603 14.8269 75.0375 14.0375 75.5821 13.1469C76.7032 11.3162 77.3791 10.4333 77.6097 10.4984C77.7641 10.5427 77.8776 10.6758 77.9007 10.8319C77.961 11.0412 78.463 12.1943 78.9225 13.2108C78.9775 13.3314 78.9686 13.4734 78.8994 13.5869C78.8302 13.7004 78.7078 13.7714 78.5748 13.7785L76.2012 13.8902C76.1568 13.892 76.1178 13.8867 76.0788 13.8778C75.6193 14.63 75.2486 15.242 75.2486 15.242C75.1723 15.368 75.041 15.4354 74.9044 15.4354C74.8335 15.4354 74.7625 15.4159 74.6969 15.3768C74.507 15.2615 74.4467 15.0149 74.5603 14.8251V14.8269ZM63.1607 10.7804L64.4823 6.14326C64.5284 5.9836 64.6668 5.86832 64.8335 5.85235C65.0021 5.83638 65.1564 5.92686 65.2309 6.07587L66.0594 7.75938L67.5371 6.70385C67.6737 6.60805 67.8546 6.60452 67.993 6.69676C68.1314 6.78901 68.1988 6.95752 68.1615 7.12073C67.0918 11.804 67.0138 11.9637 66.9872 12.0151C66.9162 12.1553 66.7743 12.2369 66.627 12.2369C66.5667 12.2369 66.5064 12.2227 66.4479 12.1943C66.258 12.0985 66.1747 11.8732 66.2563 11.6799C66.29 11.5805 66.3964 11.1459 66.5366 10.5552L65.7525 8.96212L64.1949 10.0744L63.9324 10.9987C63.8827 11.1761 63.7213 11.2913 63.5456 11.2913C63.5084 11.2913 63.4711 11.286 63.4356 11.2754C63.2228 11.2151 63.0986 10.9915 63.1589 10.7787L63.1607 10.7804ZM54.0513 4.14401C54.0513 4.14401 54.0584 4.14401 54.062 4.14401C54.2784 4.14401 54.4576 4.31785 54.4629 4.53605L54.4753 5.01857L55.3037 4.17948C55.4599 4.0216 55.7135 4.01982 55.8714 4.17593C56.0293 4.33204 56.0311 4.58573 55.875 4.74361L54.5001 6.13441L54.5055 6.35438L56.0187 4.92454C56.1801 4.77198 56.4338 4.77909 56.5863 4.94052C56.7389 5.10195 56.7318 5.35562 56.5704 5.50819L54.5321 7.43472L54.58 9.42337C54.5853 9.64511 54.4097 9.8296 54.1879 9.83492C54.1844 9.83492 54.1808 9.83492 54.1773 9.83492C53.9608 9.83492 53.7817 9.66108 53.7763 9.44288L53.693 5.97474L53.6593 4.55379C53.6539 4.33204 53.8296 4.14755 54.0513 4.14223V4.14401ZM39.6715 7.84985L40.8476 5.8896C40.8582 5.87186 40.876 5.85944 40.8884 5.84347C40.9079 5.82041 40.9257 5.7938 40.9505 5.77606C40.9877 5.74767 41.0285 5.72994 41.0729 5.71575C41.08 5.71398 41.0835 5.70864 41.0906 5.70687C41.1403 5.69445 41.1935 5.69092 41.2467 5.69801C41.2964 5.70511 41.3443 5.72106 41.3869 5.74589C41.3887 5.74589 41.3922 5.74589 41.394 5.74767C41.394 5.74767 41.394 5.74767 41.3958 5.74767L43.3649 6.88835C43.5565 7.00011 43.6221 7.24491 43.5121 7.43827C43.4003 7.62986 43.1555 7.69551 42.9622 7.58375L41.8268 6.92559L42.8132 10.6616C42.8699 10.8763 42.7422 11.0962 42.5276 11.153C42.4938 11.1619 42.4584 11.1672 42.4247 11.1672C42.2473 11.1672 42.0841 11.0483 42.0362 10.8674L41.0463 7.11895L40.3598 8.2614C40.2835 8.38735 40.1504 8.45654 40.0156 8.45654C39.9446 8.45654 39.8737 8.43881 39.8098 8.39978C39.62 8.28624 39.5579 8.03789 39.6715 7.84807V7.84985ZM27.8 11.5805C27.8692 11.4492 28.0058 11.3676 28.1548 11.3676H31.4987C31.7205 11.3676 31.9014 11.5468 31.9014 11.7703C31.9014 11.9939 31.7223 12.173 31.4987 12.173H28.9105L29.1411 12.5172L31.0748 12.5793C31.2965 12.5864 31.4704 12.7726 31.4633 12.9944C31.4562 13.2126 31.277 13.3829 31.0623 13.3829C31.0588 13.3829 31.0535 13.3829 31.0482 13.3829L29.6946 13.3385L31.2256 15.6128C31.3497 15.7972 31.3001 16.0474 31.1173 16.1698C31.0481 16.2159 30.9701 16.239 30.8938 16.239C30.7643 16.239 30.6384 16.1769 30.5603 16.0616L27.8213 11.9956C27.7379 11.8732 27.7308 11.7136 27.8 11.5823V11.5805ZM20.4273 16.6913C20.4273 16.4696 20.6065 16.2887 20.83 16.2887C21.0536 16.2887 21.2327 16.4678 21.2327 16.6913V19.5723L24.2272 19.6716C24.449 19.6787 24.6228 19.865 24.6157 20.0867C24.6086 20.3032 24.4294 20.4752 24.2148 20.4752C24.2095 20.4752 24.2059 20.4752 24.2006 20.4752L20.8176 20.3635C20.6012 20.3564 20.4291 20.179 20.4291 19.9625V16.6913H20.4273ZM9.42869 29.354L10.6776 29.0524L9.96443 28.6497C9.77106 28.5415 9.70188 28.2949 9.81187 28.1016C9.92008 27.9082 10.1649 27.8408 10.36 27.949L11.1122 28.373L10.7503 27.0975C10.69 26.8846 10.8142 26.6611 11.027 26.6008C11.2399 26.5405 11.4634 26.6646 11.5238 26.8775L12.1074 28.9336L14.5608 30.3173C14.7542 30.4255 14.8234 30.6721 14.7134 30.8654C14.6389 30.9967 14.504 31.0694 14.3639 31.0694C14.2965 31.0694 14.2291 31.0535 14.167 31.018L11.7083 29.6307L9.62028 30.1346C9.58834 30.1416 9.55641 30.1452 9.52625 30.1452C9.34531 30.1452 9.18033 30.021 9.13598 29.8383C9.08454 29.6219 9.21581 29.4054 9.43223 29.354H9.42869ZM5.51352 41.0072L7.14913 39.6963C7.24847 39.6164 7.37974 39.5898 7.50392 39.6218C7.62633 39.6537 7.72744 39.7424 7.77534 39.8613L8.27028 41.1048L9.59012 40.1841C9.69479 40.1114 9.82606 40.0919 9.94669 40.1327C10.0673 40.1735 10.1613 40.2675 10.2004 40.3881L10.8958 42.5045C10.9419 42.6446 10.9064 42.8008 10.8053 42.9072C10.729 42.987 10.6226 43.0314 10.5144 43.0314C10.4789 43.0314 10.4434 43.026 10.4079 43.0172L5.65899 41.7062C5.51352 41.6654 5.40353 41.5483 5.3716 41.3993C5.34145 41.2521 5.39644 41.0995 5.51352 41.0055V41.0072ZM4.4101 55.4439C4.27173 55.4439 4.13869 55.3729 4.06418 55.2452C3.95065 55.0536 4.01451 54.807 4.2061 54.6953L6.22489 53.5049L4.39946 52.3571C4.21142 52.2383 4.15465 51.9917 4.27351 51.8037C4.39237 51.6156 4.63895 51.5589 4.82699 51.6777L7.00543 53.0472L9.33644 51.6724C9.52803 51.5589 9.77461 51.6227 9.88637 51.8143C9.99991 52.0059 9.93605 52.2525 9.74446 52.3643L7.77002 53.528L9.35063 54.5214C9.53867 54.6403 9.59544 54.8868 9.47658 55.0749C9.4003 55.1955 9.26903 55.2629 9.13598 55.2629C9.06325 55.2629 8.98874 55.2434 8.9231 55.2008L6.99125 53.9857L4.61589 55.3871C4.55202 55.4244 4.48107 55.4421 4.41188 55.4421L4.4101 55.4439ZM6.58323 66.6891C6.46082 66.6891 6.34197 66.6323 6.26569 66.533C6.16635 66.4053 6.15392 66.2314 6.23375 66.0913L6.5921 65.4527C6.70031 65.2593 6.9469 65.1901 7.14026 65.2983C7.2804 65.3764 7.35491 65.5254 7.34426 65.6744L9.94492 65.0003L9.73204 64.8513C9.62737 64.7768 9.56351 64.6579 9.55996 64.5302L9.53513 63.331L7.84098 64.0157L7.66003 64.6508C7.61036 64.8264 7.44893 64.9417 7.27331 64.9417C7.23605 64.9417 7.1988 64.9364 7.16332 64.9258C6.95044 64.8655 6.82627 64.6419 6.88658 64.4291L7.12252 63.6059C7.15622 63.4871 7.24315 63.3895 7.35845 63.3434L10.8532 61.9313C11.0572 61.8497 11.2931 61.9473 11.3765 62.1531C11.4599 62.3588 11.3606 62.593 11.1548 62.6764L10.3334 63.0081L10.36 64.3102L10.9685 64.736L11.4138 64.6207C11.6284 64.5657 11.8484 64.6952 11.9034 64.908C11.9584 65.1227 11.8307 65.3427 11.6142 65.3977L6.68612 66.6749C6.65242 66.6838 6.61871 66.6873 6.585 66.6873L6.58323 66.6891ZM14.9387 75.2911L12.8525 75.174L13.7253 76.8061C13.7927 76.9303 13.7891 77.0811 13.7164 77.2017C13.6437 77.3223 13.5124 77.3968 13.3722 77.3968H11.8768L13.2552 79.4121C13.3811 79.5948 13.3332 79.8449 13.1505 79.9709C13.0813 80.0188 13.0015 80.0418 12.9234 80.0418C12.7957 80.0418 12.6697 79.9815 12.5917 79.8662L10.9029 77.3968H10.2589C10.0372 77.3968 9.85622 77.2177 9.85622 76.9941C9.85622 76.7706 10.0354 76.5915 10.2589 76.5915H10.3529L9.14308 74.8228C9.01713 74.6401 9.06502 74.3899 9.24774 74.264C9.43046 74.138 9.68059 74.186 9.80655 74.3687L11.3268 76.5915H12.7017L11.8076 74.9204C11.7384 74.7926 11.7455 74.6365 11.8236 74.5141C11.9016 74.3917 12.0382 74.3208 12.1855 74.3297L14.9848 74.4857C15.2065 74.4982 15.3768 74.688 15.3644 74.9097C15.352 75.1315 15.164 75.3035 14.9404 75.2876L14.9387 75.2911ZM23.8352 85.7345C23.7908 85.8818 23.6666 85.99 23.5158 86.0148L20.7946 86.4707L20.3528 89.1353C20.328 89.2843 20.2216 89.4067 20.0761 89.4528C20.0371 89.4652 19.9963 89.4705 19.9555 89.4705C19.849 89.4705 19.7444 89.428 19.6681 89.3481L17.2714 86.8841C17.1668 86.7776 17.1313 86.6215 17.1774 86.4778C17.2235 86.3359 17.3459 86.2313 17.4932 86.2064L20.0956 85.7718L20.5231 83.1995C20.548 83.0541 20.6491 82.9334 20.7892 82.8855C20.9294 82.8376 21.0837 82.8713 21.1919 82.9707L23.7234 85.323C23.8352 85.4276 23.8795 85.5855 23.8352 85.7328V85.7345ZM34.4737 93.744L32.9286 94.0137C32.7565 94.0421 32.5897 93.9622 32.5081 93.8115L31.889 92.6903L30.1221 95.3637L31.3941 95.1916C31.5732 95.1668 31.7435 95.2626 31.8163 95.4258L32.533 97.0383C32.6234 97.2405 32.533 97.4783 32.329 97.5687C32.2757 97.5918 32.2207 97.6042 32.1658 97.6042C32.0114 97.6042 31.8642 97.5155 31.7985 97.3647L31.2043 96.0272L29.3522 96.2773C29.1926 96.2986 29.0418 96.2258 28.9584 96.0928C28.875 95.9597 28.8768 95.7894 28.9637 95.6582L31.5839 91.6933C31.6619 91.5762 31.7915 91.5053 31.9351 91.5142C32.0753 91.5195 32.203 91.5975 32.2704 91.7217L32.4354 92.0215L32.98 91.3864C33.1237 91.2179 33.3774 91.1984 33.5477 91.3421C33.7162 91.4858 33.7357 91.7395 33.592 91.908L32.8523 92.7701L33.074 93.1711L34.3371 92.9511C34.5535 92.9138 34.7646 93.0593 34.8019 93.2775C34.8391 93.4957 34.6937 93.705 34.4755 93.7423L34.4737 93.744ZM42.8274 97.6078C42.6517 97.7444 42.3998 97.7142 42.2632 97.5386L41.6211 96.7172L40.523 100.386C40.4768 100.537 40.3473 100.648 40.1912 100.67C40.1735 100.671 40.1558 100.673 40.138 100.673C39.9996 100.673 39.8701 100.602 39.7974 100.483L38.655 98.6473C38.5379 98.4593 38.5964 98.2109 38.7845 98.0938C38.9743 97.9768 39.2209 98.0335 39.3379 98.2233L40.0103 99.3037L41.0764 95.7451C41.119 95.6014 41.2396 95.4932 41.3869 95.4648C41.5359 95.4364 41.6849 95.4932 41.7772 95.612L42.8965 97.0454C43.0331 97.221 43.003 97.473 42.8274 97.6096V97.6078ZM53.8899 101.919C53.8846 102.098 53.7604 102.252 53.5865 102.295C53.5528 102.303 53.5209 102.307 53.4872 102.307C53.347 102.307 53.2122 102.233 53.1395 102.107L52.1602 100.423L50.8014 102.153C50.6967 102.286 50.5193 102.339 50.3579 102.286C50.1965 102.233 50.0865 102.082 50.0829 101.913C50.0492 100.159 49.9907 97.4854 49.9747 97.253C49.9481 97.0454 50.0865 96.8485 50.294 96.8077C50.5105 96.7634 50.7233 96.9053 50.7659 97.1235C50.7748 97.1643 50.7925 97.253 50.8635 100.773L51.8924 99.4616C51.974 99.3569 52.1035 99.3001 52.2365 99.309C52.3696 99.3179 52.4884 99.3924 52.5559 99.5077L53.1288 100.492L53.2406 97.0082C53.2477 96.7864 53.4411 96.6161 53.6557 96.6197C53.8775 96.6268 54.0513 96.813 54.0442 97.0348L53.8881 101.919H53.8899ZM66.2368 97.7745L65.3303 100.698C65.277 100.87 65.1174 100.98 64.9471 100.98C64.9081 100.98 64.8673 100.975 64.8282 100.962C64.6171 100.897 64.4983 100.671 64.5639 100.459L65.238 98.289L63.4144 98.9081C63.2724 98.956 63.1163 98.9223 63.0081 98.8176C62.8999 98.7147 62.8573 98.5604 62.8999 98.4149L63.7727 95.3743C63.8348 95.1614 64.0583 95.039 64.2694 95.0994C64.4823 95.1615 64.6065 95.3832 64.5444 95.5961L63.8827 97.8987L65.7259 97.2725C65.8696 97.2246 66.0274 97.2601 66.1356 97.3647C66.2439 97.4694 66.2847 97.6273 66.2385 97.771L66.2368 97.7745ZM78.2892 95.4861C78.2271 95.6422 78.0745 95.738 77.9166 95.738C77.867 95.738 77.8155 95.7291 77.7676 95.7096L77.1201 95.4506L76.9871 96.4476C76.9604 96.6498 76.7884 96.7971 76.5897 96.7971C76.572 96.7971 76.5542 96.7971 76.5365 96.7935C76.3165 96.7651 76.1622 96.5629 76.1906 96.3429L76.2402 95.9615L75.6566 96.5185C75.5785 96.5931 75.4792 96.6285 75.3798 96.6285C75.2734 96.6285 75.1687 96.586 75.0889 96.5044C74.9363 96.3429 74.9417 96.0892 75.1031 95.9367L76.0593 95.0248L74.7927 94.5175C74.6082 94.443 74.5053 94.2443 74.5514 94.0509L74.9559 92.3515L74.0618 92.018C73.8542 91.9399 73.7478 91.7093 73.8258 91.5C73.9039 91.2924 74.1363 91.1877 74.3438 91.264L75.1439 91.5638L75.4916 90.1038C75.543 89.8874 75.7595 89.7544 75.9759 89.8058C76.1923 89.8573 76.3254 90.0737 76.2739 90.2901L75.9032 91.8477L77.2674 92.3568C77.4749 92.4349 77.5814 92.6655 77.5033 92.8748C77.443 93.0362 77.2904 93.1356 77.1272 93.1356C77.0811 93.1356 77.0332 93.1267 76.9871 93.1107L75.7169 92.6353L75.4153 93.9002L76.4602 94.3188L76.5613 93.5525C76.5897 93.3325 76.7919 93.1781 77.0119 93.2065C77.2319 93.2349 77.3862 93.4371 77.3578 93.6571L77.2301 94.6257L78.0674 94.961C78.2732 95.0444 78.3743 95.2768 78.2909 95.4843L78.2892 95.4861ZM53.1838 93.6394C30.8406 93.6394 12.7301 75.5271 12.7301 53.1856C12.7301 30.8441 30.8424 12.7318 53.1838 12.7318C75.5253 12.7318 93.6376 30.8441 93.6376 53.1856C93.6376 75.5271 75.5253 93.6394 53.1838 93.6394ZM88.7361 87.6079H88.729L86.2596 87.56L86.1301 88.8266C86.1089 89.0341 85.935 89.1867 85.731 89.1867C85.7168 89.1867 85.7026 89.1867 85.6902 89.1849C85.4702 89.1619 85.3088 88.965 85.3319 88.7432L85.4543 87.5422L84.4626 87.5227C84.2426 87.5192 84.0688 87.34 84.0688 87.12V86.602C83.6164 86.8167 83.5756 86.8167 83.4958 86.8167C83.274 86.8167 83.0931 86.6375 83.0931 86.414C83.0931 86.2277 83.2208 86.0698 83.3929 86.0255C83.4993 85.9829 83.9322 85.7771 84.2923 85.5997C84.4165 85.5394 84.5637 85.5465 84.6826 85.6192C84.7997 85.692 84.8724 85.8215 84.8724 85.9598V86.7244L85.5359 86.7368L85.6689 85.4383L84.5034 85.4862C84.2763 85.495 84.0954 85.323 84.0847 85.1012C84.0759 84.8795 84.2479 84.6914 84.4697 84.6826L86.1 84.6152C86.2117 84.6116 86.3288 84.656 86.4087 84.7411C86.4885 84.8263 86.5275 84.9416 86.5151 85.0569L86.3413 86.751L88.7432 86.7989C88.965 86.8025 89.1424 86.987 89.137 87.2087C89.1335 87.4287 88.9543 87.6025 88.7343 87.6025L88.7361 87.6079ZM95.903 75.7666C95.8285 75.8943 95.6937 75.9652 95.5553 75.9652C95.4861 75.9652 95.4169 75.9475 95.3531 75.9102L93.0043 74.5336L90.3008 75.8109C90.2458 75.8375 90.1872 75.8499 90.1287 75.8499C89.9779 75.8499 89.8342 75.7648 89.765 75.6193C89.671 75.4189 89.7561 75.1794 89.9566 75.0836L92.1634 74.0422L91.4627 73.6325H90.8826C90.6609 73.6325 90.4799 73.4533 90.4799 73.2298C90.4799 73.0062 90.6591 72.8271 90.8826 72.8271H91.5709C91.6419 72.8271 91.7128 72.8466 91.7749 72.8821L93.0433 73.6254L93.87 73.2351C94.0705 73.1411 94.31 73.2262 94.404 73.4267C94.498 73.6271 94.4128 73.8666 94.2124 73.9624L93.8824 74.1185L95.7575 75.2184C95.9491 75.3302 96.013 75.5768 95.9012 75.7683L95.903 75.7666ZM100.349 66.9215C100.304 67.106 100.139 67.2284 99.9583 67.2284C99.9264 67.2284 99.8962 67.2249 99.8643 67.2178L95.0603 66.0593C94.9007 66.0203 94.7818 65.8908 94.757 65.7294C94.7322 65.568 94.8084 65.4083 94.9486 65.3232L96.9319 64.147C97.1217 64.0335 97.3683 64.0956 97.4818 64.2871C97.5954 64.4787 97.5315 64.7253 97.3417 64.8371L96.2099 65.5094L100.054 66.4372C100.271 66.4886 100.404 66.7069 100.35 66.9215H100.349ZM101.958 54.9472H101.95L97.3807 54.8638C97.2246 54.8602 97.0827 54.7662 97.0206 54.6225C96.9585 54.4788 96.9851 54.3121 97.0898 54.195C98.4356 52.6848 99.2002 51.9485 99.3835 51.9864C99.4917 52.0077 99.584 52.0733 99.6425 52.162C99.7596 52.3146 100.725 53.4375 101.326 54.1329L101.968 54.1453C102.19 54.1489 102.367 54.3334 102.362 54.5551C102.358 54.7751 102.179 54.9489 101.959 54.9489L101.958 54.9472Z" fill="white"/>
<path d="M148.807 4.47931H180.513C207.797 4.47931 225.913 23.4449 225.913 52.0928C225.913 80.7408 208.214 101.887 180.345 101.887H148.807V4.47754V4.47931ZM155.346 95.848H179.518C205.317 95.848 218.904 77.8652 218.904 52.4547C218.904 30.225 206.653 10.5197 179.433 10.5197H155.346V95.848Z" fill="white"/>
</svg>
